<svg id="icons" xmlns="http://www.w3.org/2000/svg" viewBox="0 0 64 64"><title>seal</title><g id="seal"><path d="M5,56V29A27,27,0,0,1,32,2h0A27,27,0,0,1,59,29V56" fill="#ebebeb" stroke="#dedede" stroke-miterlimit="10" stroke-width="2" fill-rule="evenodd"/><circle cx="19" cy="17" r="2" fill="#404041"/><circle cx="46" cy="17" r="2" fill="#404041"/><path d="M49,36c0,5.35-3.88,10-9,10s-6.36-4.37-8-7c-1.64,2.63-3,7-8,7s-9-4.65-9-10h0c0-7.9,7.61-14,17-14s17,6.1,17,14Z" fill="#dedede" stroke="#ccc" stroke-miterlimit="10" stroke-width="2" fill-rule="evenodd"/><path d="M38.16,32.52C36.07,34.65,32,38.26,32,38.26s-4.07-3.61-6.16-5.74a2.74,2.74,0,0,1-.69-2.8A2.49,2.49,0,0,1,27.54,28h8.93a2.49,2.49,0,0,1,2.38,1.73A2.74,2.74,0,0,1,38.16,32.52Z" fill="#70635f" stroke="#615652" stroke-miterlimit="10" stroke-width="2" fill-rule="evenodd"/><line x1="42" y1="32" x2="44" y2="32" fill="none" stroke="#ccc" stroke-miterlimit="10" stroke-width="2"/><line x1="39" y1="36" x2="41" y2="36" fill="none" stroke="#ccc" stroke-miterlimit="10" stroke-width="2"/><line x1="45" y1="36" x2="47" y2="36" fill="none" stroke="#ccc" stroke-miterlimit="10" stroke-width="2"/><line x1="42" y1="40" x2="44" y2="40" fill="none" stroke="#ccc" stroke-miterlimit="10" stroke-width="2"/><line x1="38" y1="40" x2="36" y2="40" fill="none" stroke="#ccc" stroke-miterlimit="10" stroke-width="2"/><line x1="22" y1="32" x2="20" y2="32" fill="none" stroke="#ccc" stroke-miterlimit="10" stroke-width="2"/><line x1="25" y1="36" x2="23" y2="36" fill="none" stroke="#ccc" stroke-miterlimit="10" stroke-width="2"/><line x1="19" y1="36" x2="17" y2="36" fill="none" stroke="#ccc" stroke-miterlimit="10" stroke-width="2"/><line x1="22" y1="40" x2="20" y2="40" fill="none" stroke="#ccc" stroke-miterlimit="10" stroke-width="2"/><line x1="26" y1="40" x2="28" y2="40" fill="none" stroke="#ccc" stroke-miterlimit="10" stroke-width="2"/><path d="M1,56c3.87,0,3.87,6,7.75,6s3.87-6,7.75-6,3.87,6,7.75,6,3.87-6,7.75-6,3.88,6,7.75,6,3.87-6,7.75-6,3.88,6,7.75,6,3.88-6,7.75-6" fill="#80deea" stroke="#4dd0e1" stroke-linejoin="round" stroke-width="2"/></g></svg>